<?xml version="1.0" standalone="no"?>
<!DOCTYPE svg PUBLIC "-//W3C//DTD SVG 20010904//EN"
 "http://www.w3.org/TR/2001/REC-SVG-20010904/DTD/svg10.dtd">
<svg version="1.0" xmlns="http://www.w3.org/2000/svg"
 width="920.000000pt" height="920.000000pt" viewBox="0 0 920.000000 920.000000"
 preserveAspectRatio="xMidYMid meet">
<metadata>
Created by potrace 1.11, written by Peter Selinger 2001-2013
</metadata>
<g transform="translate(0.000000,920.000000) scale(0.100000,-0.100000)"
fill="#000000" stroke="none">
<path d="M4416 8742 c-3 -2 -28 -5 -58 -8 -29 -2 -69 -6 -88 -9 -19 -3 -51 -8
-70 -11 -19 -3 -44 -7 -55 -9 -16 -3 -182 -46 -230 -59 -17 -5 -48 -17 -115
-44 -36 -15 -67 -27 -70 -27 -3 -1 -34 -16 -70 -35 -36 -19 -69 -37 -75 -39
-5 -2 -35 -23 -65 -45 -43 -31 -55 -47 -55 -66 1 -14 -2 -36 -6 -50 -33 -116
-43 -146 -49 -155 -4 -5 -15 -32 -25 -60 -16 -44 -32 -83 -80 -190 -7 -16 -30
-66 -51 -110 -21 -44 -38 -82 -39 -85 -2 -10 -242 -486 -315 -625 -40 -77 -91
-174 -112 -215 -22 -41 -60 -111 -84 -155 -24 -44 -54 -100 -66 -125 -12 -25
-24 -47 -27 -50 -6 -5 -25 -39 -69 -125 -14 -27 -34 -62 -44 -77 -11 -16 -16
-28 -13 -28 3 0 -2 -12 -13 -27 -10 -16 -34 -55 -52 -88 -18 -33 -42 -76 -53
-95 -11 -19 -29 -53 -40 -75 -12 -22 -23 -42 -26 -45 -4 -3 -16 -25 -29 -49
-13 -25 -81 -147 -152 -271 -72 -125 -130 -232 -130 -239 0 -6 -3 -11 -8 -11
-4 0 -16 -17 -27 -37 -11 -21 -34 -62 -52 -91 -18 -29 -33 -55 -33 -57 0 -3
-12 -24 -27 -48 -15 -23 -31 -51 -37 -62 -14 -25 -183 -313 -214 -363 -12 -20
-25 -44 -29 -52 -4 -8 -9 -17 -12 -20 -3 -3 -13 -17 -21 -32 -28 -52 -112
-193 -131 -220 -11 -15 -19 -29 -19 -32 0 -3 -27 -48 -60 -101 -33 -53 -60
-100 -60 -106 0 -5 -4 -9 -10 -9 -5 0 -10 -4 -10 -10 0 -5 -12 -26 -26 -47
-14 -21 -32 -52 -41 -70 -8 -18 -19 -33 -24 -33 -5 0 -9 -5 -9 -10 0 -6 -11
-27 -24 -48 -217 -342 -403 -636 -411 -652 -5 -11 -13 -20 -17 -20 -5 0 -8 -6
-8 -14 0 -8 -3 -16 -7 -18 -11 -5 -53 -66 -53 -77 0 -5 -3 -11 -7 -13 -5 -1
-37 -48 -73 -102 -36 -55 -87 -130 -115 -168 -27 -37 -66 -91 -85 -118 -79
-115 -170 -228 -232 -294 -27 -27 -48 -52 -48 -55 0 -3 -14 -14 -31 -24 l-31
-17 6 -88 c3 -48 8 -98 11 -112 3 -14 8 -41 10 -60 3 -19 12 -59 20 -87 8 -29
22 -77 30 -105 8 -29 19 -62 24 -73 22 -47 40 -105 33 -105 -4 0 -2 -4 4 -8 5
-4 20 -32 33 -62 45 -108 159 -328 212 -408 16 -24 29 -45 29 -48 0 -4 121
-185 130 -194 3 -3 25 -32 49 -65 25 -33 47 -62 51 -65 3 -3 14 -16 23 -30 21
-31 121 -142 208 -229 58 -59 84 -82 179 -162 14 -11 37 -28 52 -37 16 -9 28
-21 28 -26 0 -5 10 0 23 12 34 32 166 83 257 99 14 2 41 8 60 13 19 5 53 12
75 15 22 4 49 8 60 10 55 9 154 23 210 30 17 2 30 4 30 5 0 1 18 3 40 4 22 2
63 6 90 9 105 13 244 27 330 32 73 4 193 13 295 20 41 3 110 7 153 10 43 3 82
7 87 10 5 3 11 1 15 -5 4 -6 12 -7 18 -3 7 4 41 8 77 9 36 1 137 5 225 9 88 4
221 9 295 10 156 4 830 17 845 17 33 -2 81 -2 165 1 52 1 103 -1 113 -6 9 -4
17 -4 17 0 0 10 273 8 289 -1 5 -4 12 -2 15 3 4 6 18 6 36 1 19 -5 30 -5 30 1
0 6 4 8 9 5 5 -3 148 -8 317 -11 326 -6 446 -9 714 -21 91 -3 203 -8 250 -9
47 -2 85 -4 85 -4 0 -1 38 -4 85 -6 47 -3 117 -7 155 -10 39 -3 113 -8 165
-11 194 -12 255 -18 465 -40 33 -4 71 -8 85 -10 14 -2 45 -5 70 -8 25 -3 77
-10 115 -16 39 -6 84 -12 100 -15 32 -4 131 -24 205 -41 14 -3 30 -6 35 -7 6
-2 16 -6 23 -10 6 -5 12 -6 12 -3 0 9 113 -34 157 -60 24 -14 49 -22 56 -18
91 55 338 294 442 428 17 21 42 53 57 70 15 17 35 46 45 64 10 17 20 32 24 32
3 0 35 44 70 97 35 54 67 100 70 103 3 3 9 15 13 28 4 12 11 22 16 22 4 0 10
8 13 18 4 9 22 44 41 77 53 91 86 155 79 155 -3 0 0 8 8 18 29 36 148 318 164
388 2 10 13 51 24 89 28 97 37 155 47 281 l6 71 -88 90 c-49 50 -105 112 -124
139 -19 26 -40 52 -45 58 -6 6 -31 40 -55 76 -25 36 -48 67 -51 70 -19 16
-493 725 -494 740 -1 3 -35 57 -77 121 -42 64 -83 129 -92 145 -9 16 -39 64
-66 107 -28 43 -50 80 -50 82 0 2 -13 24 -30 48 -16 25 -30 50 -30 56 0 6 -4
11 -9 11 -5 0 -13 10 -17 22 -3 12 -14 30 -23 40 -10 10 -28 39 -41 65 -13 27
-26 50 -30 53 -4 3 -18 24 -31 47 -13 23 -53 91 -89 150 -36 59 -70 117 -76
128 -6 11 -43 73 -82 139 -40 65 -72 120 -72 122 0 2 -15 27 -33 56 -19 29
-45 73 -59 98 -14 25 -63 110 -110 190 -47 80 -102 177 -123 215 -21 39 -41
72 -45 75 -3 3 -15 23 -27 45 -11 22 -29 56 -40 75 -31 53 -100 174 -123 214
-45 80 -59 106 -120 216 -35 63 -68 118 -74 122 -6 4 -7 8 -2 8 5 0 4 6 -1 13
-11 12 -36 58 -106 187 -22 41 -62 115 -89 164 -26 49 -48 92 -48 97 0 4 -3 9
-7 11 -5 2 -21 28 -36 58 -15 30 -44 84 -63 120 -19 36 -58 110 -86 165 -28
55 -56 106 -62 114 -5 7 -11 20 -12 28 -2 8 -9 22 -16 31 -15 18 -215 420
-218 437 -1 6 -11 22 -21 37 -10 14 -19 29 -19 32 0 3 -22 54 -50 112 -27 58
-50 111 -50 118 0 7 -6 18 -12 24 -7 7 -13 16 -14 20 0 4 -8 25 -18 47 -10 22
-22 51 -26 65 -5 14 -22 60 -38 102 -16 42 -27 80 -24 83 3 3 1 5 -4 5 -8 0
-14 29 -17 93 -1 16 -9 29 -19 33 -10 3 -18 9 -18 14 0 10 -132 90 -148 90 -7
0 -12 3 -12 8 0 4 -12 13 -27 19 -66 29 -109 47 -118 49 -5 2 -57 19 -114 39
-57 20 -106 33 -109 30 -3 -2 -11 0 -19 6 -7 6 -13 8 -13 5 0 -4 -8 -2 -17 3
-10 5 -43 12 -73 16 -30 4 -58 9 -62 11 -6 4 -26 7 -143 20 -58 7 -424 12
-429 6z m75 -2044 c0 -29 0 -140 0 -245 0 -176 1 -193 17 -194 68 -4 99 -3
112 3 14 5 16 40 15 247 l0 241 242 0 243 0 1 -30 c0 -16 1 -45 2 -63 0 -19
-2 -41 -5 -49 -4 -8 -2 -21 2 -28 5 -7 4 -24 0 -36 -6 -14 -5 -26 0 -29 5 -3
5 -18 0 -34 -4 -15 -4 -34 0 -41 5 -7 4 -24 0 -36 -6 -14 -5 -26 0 -29 7 -4 7
-13 0 -24 -5 -10 -7 -21 -4 -24 3 -3 6 -25 6 -49 l0 -45 66 -13 c262 -51 538
-220 668 -410 35 -51 103 -190 104 -213 0 -1 7 -26 15 -55 18 -59 25 -99 31
-182 5 -76 5 -200 0 -230 -3 -14 -7 -41 -10 -60 -7 -43 -33 -133 -53 -180 -29
-69 -87 -180 -95 -180 -4 0 -8 -5 -8 -10 0 -14 -13 -29 -90 -108 -73 -75 -107
-103 -162 -135 -38 -22 -50 -47 -23 -47 27 0 30 -1 53 -16 12 -8 22 -12 22
-10 0 7 106 -51 158 -87 70 -47 156 -137 208 -217 27 -41 49 -77 49 -80 0 -3
6 -15 14 -28 17 -31 63 -152 67 -177 3 -23 11 -54 21 -87 10 -35 12 -368 2
-397 -4 -14 -10 -39 -13 -56 -23 -133 -88 -291 -152 -368 -13 -16 -24 -32 -24
-36 0 -7 -91 -99 -145 -147 -65 -56 -315 -204 -315 -186 0 4 -4 2 -8 -4 -4 -6
-59 -27 -122 -47 -116 -37 -125 -40 -213 -53 -41 -6 -48 -10 -44 -25 3 -11 2
-19 -1 -19 -8 0 -6 -79 2 -87 3 -3 1 -13 -4 -22 -5 -10 -5 -23 0 -31 5 -8 5
-21 0 -30 -5 -9 -5 -22 0 -30 5 -8 5 -21 0 -30 -5 -9 -5 -22 0 -30 5 -8 5 -21
0 -30 -5 -9 -5 -22 0 -30 5 -8 5 -21 0 -30 -5 -9 -5 -22 0 -30 5 -8 5 -21 0
-30 -5 -9 -5 -22 -1 -29 5 -7 7 -21 4 -31 -4 -15 -25 -17 -246 -17 l-242 0 0
251 0 251 -73 2 -73 1 1 -96 c1 -53 1 -167 1 -254 l-1 -156 -32 2 c-18 1 -41
-2 -50 -6 -9 -4 -19 -5 -21 0 -6 9 -90 8 -105 -2 -7 -4 -12 -3 -12 1 0 5 -19
8 -42 6 -50 -4 -76 -4 -103 1 -11 2 -30 -1 -42 -5 -13 -5 -23 -5 -23 0 0 4
-11 7 -25 6 -18 -2 -25 2 -26 13 0 10 -1 124 -1 255 l0 237 -288 0 -288 0 0
1934 0 1933 267 1 c146 0 276 1 287 1 22 1 22 3 22 234 0 127 1 238 1 245 1 9
56 12 241 12 l240 0 1 -52z"/>
<path d="M4142 5645 c-4 -5 -7 -225 -7 -487 l0 -478 25 -1 c139 -5 420 -3 438
3 12 4 22 4 22 0 0 -9 232 -7 297 3 64 9 179 65 228 112 70 66 125 168 142
263 4 19 6 78 6 130 0 247 -147 423 -380 456 -78 11 -764 10 -771 -1z"/>
<path d="M4142 4101 c-4 -11 -7 -264 -7 -563 l0 -543 415 -2 c447 -2 499 2
606 51 119 55 219 170 264 305 27 81 31 107 30 201 -2 124 -12 171 -56 265
-32 70 -137 195 -162 195 -6 0 -12 3 -12 8 0 17 -183 87 -200 77 -5 -3 -11 -1
-15 4 -3 6 -169 10 -422 11 -229 0 -420 3 -425 6 -4 3 -12 -4 -16 -15z"/>
</g>
</svg>
